<?xml version="1.0" encoding="UTF-8" standalone="no"?>
<svg
   xmlns:dc="http://purl.org/dc/elements/1.1/"
   xmlns:cc="http://creativecommons.org/ns#"
   xmlns:rdf="http://www.w3.org/1999/02/22-rdf-syntax-ns#"
   xmlns:svg="http://www.w3.org/2000/svg"
   xmlns="http://www.w3.org/2000/svg"
   viewBox="0 0 70.799996 27.601323"
   height="27.601322"
   width="70.799995"
   xml:space="preserve"
   id="svg2"
   version="1.1"><metadata
     id="metadata8"><rdf:RDF><cc:Work
         rdf:about=""><dc:format>image/svg+xml</dc:format><dc:type
           rdf:resource="http://purl.org/dc/dcmitype/StillImage" /></cc:Work></rdf:RDF></metadata><defs
     id="defs6" /><g
     transform="matrix(1.3333333,0,0,-1.3333333,-0.03333333,27.633761)"
     id="g10"><g
       transform="scale(0.1)"
       id="g12"><path
         id="path14"
         style="fill:#154280;fill-opacity:1;fill-rule:evenodd;stroke:none"
         d="m 327.25,129.25 c 3.445,-2.828 7.688,-4.785 12,-5 0.43,0.215 112.285,0.219 112,0 l -83,83 h 59 l 104,-104 -104,-103 h -122 c -16.344,-0.25 -31.109,6.50391 -42,17 l -60,61 c -2.922,2.7773 -7.16,4.7383 -12,5 0.094,-0.2617 -111.7617,-0.2656 -112,0 l 83,-83 h -59 l -103,103 103,104 h 123 c 15.871,0.172 30.633,-6.582 41,-17 z m -29,-29 c 10.285,-10.5391 25.078,-17.293 41,-17 h 112 l -41,-42 c -0.176,0.2383 -104.902,0.2266 -105,0 -4.648,0.2266 -8.887,2.1875 -12,5 l -60,61 c -10.758,10.461 -25.523,17.215 -42,17 h -112 l 42,42 c -0.27,-0.316 104.426,-0.309 104,0 5.172,-0.309 9.414,-2.266 12,-5 l 43,-43 v 0 l 18,-18" /></g></g></svg>