<svg xmlns="http://www.w3.org/2000/svg" width="24" height="24" viewBox="0 0 24 24">
  <path d="M7.51798079,14.4205946 C7.51798079,15.4565106 7.64860019,16.8681782 7.91137456,18.6463718 C10.802947,19.4979924 13.1763281,19.9205946 15.0179808,19.9205946 C15.7764658,19.9205946 16.1203742,19.9170579 16.5411705,19.8999116 C19.7093822,19.7708156 21.0179808,18.8625735 21.0179808,15.9205946 L21.0179808,11.9602973 C21.0179808,9.15101749 19.7972511,7.92059459 17.0179808,7.92059459 L14.0179808,7.92059459 C13.465696,7.92059459 13.0179808,7.47287934 13.0179808,6.92059459 C13.0179808,6.36830984 13.465696,5.92059459 14.0179808,5.92059459 L16.0969404,5.92059459 C16.110272,4.52550926 15.5046837,4 14.115804,4 C11.6635058,4 9.44888132,5.88519921 7.99753959,9.13887612 C7.67734393,11.5083009 7.51798079,13.2745783 7.51798079,14.4205946 Z M4.27111574,11.0018997 C3.84990867,11.021916 3.48652184,11.3040037 3.36268247,11.7070934 C3.12272527,12.4881397 3,13.4206955 3,14.5044111 C3,15.6510921 3.13739766,16.6177153 3.40461992,17.4035813 C3.52825943,17.7672125 3.84924827,18.0278966 4.23051996,18.0743152 L5.83775278,18.2699905 C5.62491951,16.7087018 5.51798079,15.427661 5.51798079,14.4205946 C5.51798079,13.5224486 5.60325255,12.3220188 5.77325651,10.8130208 C5.32995709,10.9141612 4.8282661,10.9754216 4.27111574,11.0018997 Z M6.80556233,20.4025859 L3.98881124,20.0596557 C2.84499469,19.9203998 1.88201104,19.1383335 1.51108854,18.0474283 C1.16783639,17.0379682 1,15.8572018 1,14.5044111 C1,13.2321833 1.14846012,12.1040753 1.45087369,11.1197373 C1.82239175,9.9104684 2.91255476,9.0642031 4.17617762,9.0041543 C5.40380455,8.9458124 6.00423023,8.70654955 6.09657381,8.49344691 C7.83241388,4.48762339 10.7061344,2 14.115804,2 C16.7058788,2 18.0919725,3.4568531 18.0870386,5.97902851 C21.2911162,6.34535347 23.0179808,8.42494378 23.0179808,11.9602973 L23.0179808,15.9205946 C23.0179808,20.1466502 20.7357425,21.7306538 16.6225975,21.8982533 C16.1657345,21.9168692 15.8034812,21.9205946 15.0179808,21.9205946 C12.8401927,21.9205946 10.1080884,21.4120472 6.80556233,20.4025859 Z"/>
</svg>
