<svg xmlns="http://www.w3.org/2000/svg" width="24" height="24" viewBox="0 0 24 24">
  <path d="M6,6 L6,3 C6,2.44771525 6.44771525,2 7,2 L17,2 C17.5522847,2 18,2.44771525 18,3 L18,6 L20,6 C21.6568542,6 23,7.34314575 23,9 L23,19 C23,20.6568542 21.6568542,22 20,22 L4,22 C2.34314575,22 1,20.6568542 1,19 L1,9 C1,7.34314575 2.34314575,6 4,6 L6,6 Z M6,20 C6.14055363,20 10.1405536,20.0282584 18,20 L18,8 L6,8 L6,20 L4,20 L4,8 C3.44771525,8 3,8.44771525 3,9 L3,19 C3,19.5522847 3.44771525,20 4,20 M20,8 L20,20 C20.5522847,20 21,19.5522847 21,19 L21,9 C21,8.44771525 20.5522847,8 20,8 Z M8,6 L16,6 L16,4 L8,4 L8,6 Z M13,13 L15,13 C15.5522847,13 16,13.4477153 16,14 C16,14.5522847 15.5522847,15 15,15 L13,15 L13,17 C13,17.5522847 12.5522847,18 12,18 C11.4477153,18 11,17.5522847 11,17 L11,15 L9,15 C8.44771525,15 8,14.5522847 8,14 C8,13.4477153 8.44771525,13 9,13 L11,13 L11,11 C11,10.4477153 11.4477153,10 12,10 C12.5522847,10 13,10.4477153 13,11 L13,13 Z"/>
</svg>
